<svg width="50" height="50" viewBox="0 0 50 50" fill="none" xmlns="http://www.w3.org/2000/svg">
<circle cx="25" cy="25" r="25" fill="white"/>
<path d="M42.0283 16.856C41.8205 16.1131 41.4244 15.4365 40.8783 14.8917C40.3323 14.3468 39.6548 13.9522 38.9115 13.746C36.1213 13 24.9046 13 24.9046 13C24.9046 13 13.7091 12.9821 10.8899 13.746C10.1477 13.9531 9.4716 14.3481 8.9268 14.8929C8.38199 15.4377 7.98693 16.1139 7.77982 16.856C7.24996 19.7124 6.989 22.6122 7.00036 25.5174C6.99519 28.4085 7.25611 31.294 7.77982 34.1373C7.9876 34.8799 8.38277 35.5565 8.92739 36.1023C9.47201 36.6481 10.1478 37.0447 10.8899 37.2541C13.6801 38 24.9046 38 24.9046 38C24.9046 38 36.0934 38 38.9115 37.2541C39.6548 37.0456 40.3319 36.6494 40.8777 36.1035C41.4236 35.5577 41.8198 34.8806 42.0283 34.1373C42.5416 31.2957 42.7921 28.406 42.7742 25.5174C42.7921 22.6097 42.5472 19.7155 42.0283 16.856ZM21.3215 30.8707V20.1405L30.6583 25.5174L21.3215 30.8707Z" fill="#0A0A30"/>
</svg>
