<svg width="20" height="20" viewBox="0 0 20 20" fill="none" xmlns="http://www.w3.org/2000/svg">
<g clip-path="url(#clip0_9_265)">
<path d="M19.8239 3.97363L13.7583 10.0002L19.8239 16.0267C19.9335 15.7975 20 15.5441 20 15.2736V4.72672C20 4.45613 19.9335 4.20281 19.8239 3.97363Z" fill="#0077B6"/>
<path d="M18.2422 2.96875H1.75785C1.48726 2.96875 1.23394 3.03527 1.00476 3.14492L8.75722 10.8583C9.44269 11.5438 10.5574 11.5438 11.2428 10.8583L18.9953 3.14492C18.7661 3.03527 18.5128 2.96875 18.2422 2.96875Z" fill="#0077B6"/>
<path d="M0.176172 3.97363C0.0665234 4.20281 0 4.45613 0 4.72672V15.2736C0 15.5442 0.0665234 15.7975 0.176172 16.0267L6.24176 10.0002L0.176172 3.97363Z" fill="#0077B6"/>
<path d="M12.9297 10.8286L12.0714 11.6869C10.9293 12.8291 9.07078 12.8291 7.92863 11.6869L7.07035 10.8286L1.00476 16.8551C1.23394 16.9648 1.48726 17.0313 1.75785 17.0313H18.2422C18.5128 17.0313 18.7661 16.9648 18.9953 16.8551L12.9297 10.8286Z" fill="#0077B6"/>
</g>
<defs>
<clipPath id="clip0_9_265">
<rect width="20" height="20" fill="white"/>
</clipPath>
</defs>
</svg>
