<svg width="13" height="10" viewBox="0 0 13 10" fill="none" xmlns="http://www.w3.org/2000/svg">
<path d="M0.625359 9.35828H11.8754C11.9893 9.35792 12.1009 9.32651 12.1983 9.26742C12.2957 9.20833 12.3751 9.1238 12.428 9.02294C12.4809 8.92207 12.5053 8.80868 12.4985 8.69498C12.4918 8.58128 12.4542 8.47157 12.3897 8.37766L6.76473 0.252656C6.53161 -0.0842188 5.97036 -0.0842188 5.73661 0.252656L0.111609 8.37766C0.0464991 8.47137 0.00831743 8.58114 0.00121183 8.69503C-0.00589377 8.80892 0.0183485 8.92258 0.0713048 9.02366C0.124261 9.12474 0.203906 9.20938 0.301586 9.26837C0.399266 9.32736 0.511246 9.35846 0.625359 9.35828Z" fill="white"/>
</svg>
