<svg width="20" height="20" viewBox="0 0 20 20" fill="none" xmlns="http://www.w3.org/2000/svg">
<g clip-path="url(#clip0_9_280)">
<path d="M17.2324 13.9201C16.0242 12.8867 14.7981 12.2608 13.6047 13.2926L12.8921 13.9162C12.3707 14.3689 11.4014 16.484 7.65347 12.1726C3.90635 7.86665 6.1362 7.19621 6.65835 6.74743L7.37484 6.12304C8.56196 5.08889 8.11396 3.78704 7.25776 2.44694L6.74108 1.63524C5.88098 0.29826 4.9444 -0.579789 3.75415 0.452796L3.11103 1.01475C2.58498 1.39797 1.11454 2.64363 0.757861 5.01006C0.328592 7.84948 1.68274 11.101 4.78518 14.6686C7.88372 18.2378 10.9175 20.0306 13.7912 19.9993C16.1795 19.9736 17.6219 18.692 18.073 18.2261L18.7184 17.6633C19.9056 16.6315 19.168 15.581 17.959 14.5453L17.2324 13.9201Z" fill="#0077B6"/>
</g>
<defs>
<clipPath id="clip0_9_280">
<rect width="20" height="20" fill="white"/>
</clipPath>
</defs>
</svg>
