<svg width="30" height="30" viewBox="0 0 30 30" fill="none" xmlns="http://www.w3.org/2000/svg">
<circle cx="15" cy="15" r="15" fill="white"/>
<rect x="4" y="9" width="22" height="13" fill="#0077B6"/>
<path d="M5.94 7.4249C3.8313 9.27014 1.8 8.76506 1.8 14.7046V17.4062C1.8 23.3458 3.8313 21.1798 5.94 23.0249C8.04884 24.8701 7.68697 26.3249 14.475 26.3249H16.425C23.2131 26.3249 24.5313 25.4701 26.64 23.6249C28.7488 21.7798 28.02 21.7708 28.02 15.8312V13.5081C28.02 7.56848 27.2588 8.37008 25.15 6.5249C23.0413 4.67979 22.4631 2.3999 15.675 2.3999H14.475C7.6869 2.3999 8.04878 5.57978 5.94 7.4249ZM5.1375 10.3844H8.56253C8.67503 15.3937 11.2 17.5156 13.2 17.9531V10.3843H16.425V14.7046C18.4 14.5187 20.475 12.5499 21.175 10.3843H24.4C24.1361 11.5074 23.6103 12.5709 22.8554 13.5081C22.1004 14.4453 21.1326 15.2361 20.0125 15.8312C21.2632 16.3745 22.3679 17.1438 23.2535 18.0885C24.1391 19.0331 24.7855 20.1314 25.15 21.3109H21.6C21.2729 20.2864 20.6072 19.3692 19.6866 18.6746C18.7659 17.9799 17.6312 17.5386 16.425 17.4062V21.3109H16.0375C9.20003 21.3109 5.30003 17.2094 5.1375 10.3844Z" fill="white"/>
</svg>
