<?xml version="1.0" encoding="utf-8"?><svg viewBox="0 0 25 25" xmlns="http://www.w3.org/2000/svg" xmlns:xlink="http://www.w3.org/1999/xlink"><style>:root>svg{display:none}:root>svg:target{display:block}</style><svg viewBox="0 0 13 10" id="menu" xmlns="http://www.w3.org/2000/svg"><path d="M.625.642h11.25a.626.626 0 01.515.98L6.765 9.747c-.233.337-.795.337-1.028 0L.112 1.622a.624.624 0 01.513-.98z"/></svg><svg viewBox="0 0 13 10" id="menu-open" xmlns="http://www.w3.org/2000/svg"><path d="M.625 9.358h11.25a.626.626 0 00.515-.98L6.765.253c-.233-.337-.795-.337-1.028 0L.112 8.378a.624.624 0 00.513.98z"/></svg><svg viewBox="0 0 24 24" id="search" xmlns="http://www.w3.org/2000/svg"><path fill-rule="evenodd" clip-rule="evenodd" d="M17.19 15.478l6.456 6.456a1.21 1.21 0 01-1.713 1.711l-6.455-6.456a9.6 9.6 0 111.71-1.71h.002zM9.6 16.8a7.2 7.2 0 100-14.398 7.2 7.2 0 000 14.398z"/></svg><svg viewBox="0 0 25 25" id="user" xmlns="http://www.w3.org/2000/svg"><path d="M15.102 14.844h-4.97c-4.692 0-8.496 3.789-8.496 8.462 0 .937.76 1.694 1.699 1.694H21.9c.938 0 1.698-.757 1.698-1.694 0-4.673-3.804-8.462-8.496-8.462zM12.617 12.5c3.466 0 6.275-2.798 6.275-6.25S16.082 0 12.617 0C9.15 0 6.342 2.798 6.342 6.25s2.809 6.25 6.275 6.25z"/></svg></svg>