<?xml version="1.0" encoding="utf-8"?><svg viewBox="0 0 61 50" xmlns="http://www.w3.org/2000/svg" xmlns:xlink="http://www.w3.org/1999/xlink"><style>:root>svg{display:none}:root>svg:target{display:block}</style><svg viewBox="0 0 61 35" id="btn" xmlns="http://www.w3.org/2000/svg"><circle cx="43" cy="17.5" r="17"/><path d="M1 17a.5.5 0 000 1v-1zm42.354.854a.5.5 0 000-.708l-3.182-3.182a.5.5 0 10-.707.708l2.828 2.828-2.828 2.828a.5.5 0 10.707.707l3.182-3.181zM1 18h42v-1H1v1z"/><defs><linearGradient id="aa" x1="60.5" y1="17.5" x2="25.5" y2="17.5" gradientUnits="userSpaceOnUse"><stop stop-color="#023E8A"/><stop offset="1" stop-color="#EDF6F9" stop-opacity="0"/></linearGradient></defs></svg><svg viewBox="0 0 50 50" id="contact-telegram" xmlns="http://www.w3.org/2000/svg"><path d="M25 0C11.189 0 0 11.19 0 25s11.19 25 25 25c13.811 0 25-11.19 25-25S38.81 0 25 0zm12.279 17.127l-4.103 19.336c-.303 1.37-1.12 1.703-2.258 1.058l-6.25-4.607-3.015 2.904c-.332.332-.614.614-1.26.614l.444-6.361L32.42 19.606c.505-.443-.11-.695-.777-.251l-14.315 9.011-6.169-1.926c-1.34-.422-1.37-1.34.282-1.985l24.104-9.295c1.119-.403 2.096.272 1.733 1.966l.002.001z"/></svg><svg viewBox="0 0 50 50" id="contact-vk" xmlns="http://www.w3.org/2000/svg"><circle cx="25" cy="25" r="25"/><path d="M8 15h36v21H8z"/><path d="M9.9 12.375C6.385 15.45 3 14.609 3 24.508v4.502c0 9.9 3.385 6.29 6.9 9.365 3.515 3.075 2.912 5.5 14.225 5.5h3.25c11.313 0 13.51-1.425 17.025-4.5 3.515-3.075 2.3-3.09 2.3-12.99v-3.871c0-9.9-1.269-8.564-4.783-11.639C38.402 7.8 37.438 4 26.125 4h-2C12.812 4 13.415 9.3 9.9 12.375zm-1.338 4.932h5.709c.187 8.35 4.396 11.886 7.729 12.615V17.307h5.375v7.2c3.292-.31 6.75-3.59 7.917-7.2h5.375c-.44 1.872-1.317 3.645-2.575 5.207-1.258 1.562-2.871 2.88-4.738 3.871 2.085.906 3.926 2.188 5.402 3.763 1.476 1.574 2.553 3.405 3.16 5.37H36c-.545-1.707-1.655-3.236-3.19-4.394-1.534-1.157-3.425-1.893-5.435-2.114v6.508h-.646c-11.396 0-17.896-6.836-18.166-18.21z"/></svg><svg viewBox="0 0 50 50" id="contact-youtube" xmlns="http://www.w3.org/2000/svg"><circle cx="25" cy="25" r="25"/><path d="M42.028 16.856a4.479 4.479 0 00-3.117-3.11C36.121 13 24.905 13 24.905 13s-11.196-.018-14.015.746a4.478 4.478 0 00-3.11 3.11A46.492 46.492 0 007 25.517a47.121 47.121 0 00.78 8.62 4.498 4.498 0 003.11 3.117C13.68 38 24.905 38 24.905 38s11.188 0 14.006-.746a4.498 4.498 0 003.117-3.117c.514-2.841.764-5.731.746-8.62a46.843 46.843 0 00-.746-8.661zM21.322 30.871V20.14l9.336 5.376-9.337 5.354z"/></svg><svg viewBox="0 0 18 18" id="hour" xmlns="http://www.w3.org/2000/svg"><path d="M9 0C4.037 0 0 4.037 0 9s4.037 9 9 9 9-4.037 9-9-4.037-9-9-9zm4.28 13.655a.748.748 0 01-1.06 0l-3.75-3.75a.747.747 0 01-.22-.53V4.5a.75.75 0 111.5 0v4.565l3.53 3.53a.75.75 0 010 1.06z"/></svg><svg viewBox="0 0 20 20" id="location" xmlns="http://www.w3.org/2000/svg"><path d="M10 0C6.006 0 2.757 3.25 2.757 7.243c0 4.957 6.482 12.233 6.758 12.54a.65.65 0 00.97 0c.276-.307 6.758-7.583 6.758-12.54C17.243 3.25 13.993 0 10 0zm0 10.887a3.648 3.648 0 01-3.644-3.644A3.648 3.648 0 0110 3.6a3.648 3.648 0 013.644 3.644A3.648 3.648 0 0110 10.887z"/></svg><svg viewBox="0 0 20 20" id="mail" xmlns="http://www.w3.org/2000/svg"><g clip-path="url(#ga)"><path d="M19.824 3.974L13.758 10l6.066 6.027c.11-.23.176-.483.176-.753V4.727c0-.27-.067-.524-.176-.753zm-1.582-1.005H1.758c-.27 0-.524.066-.753.176l7.752 7.713a1.76 1.76 0 002.486 0l7.752-7.713a1.737 1.737 0 00-.753-.176zM.176 3.974A1.73 1.73 0 000 4.727v10.547c0 .27.067.524.176.753L6.242 10 .176 3.974z"/><path d="M12.93 10.829l-.859.858a2.933 2.933 0 01-4.142 0l-.859-.858-6.065 6.026c.229.11.482.176.753.176h16.484c.27 0 .524-.066.753-.176L12.93 10.83z"/></g><defs><clipPath id="ga"><path d="M0 0h20v20H0z"/></clipPath></defs></svg><svg viewBox="0 0 13 10" id="menu" xmlns="http://www.w3.org/2000/svg"><path d="M.625.642h11.25a.626.626 0 01.515.98L6.765 9.747c-.233.337-.795.337-1.028 0L.112 1.622a.624.624 0 01.513-.98z"/></svg><svg viewBox="0 0 13 10" id="menu-open" xmlns="http://www.w3.org/2000/svg"><path d="M.625 9.358h11.25a.626.626 0 00.515-.98L6.765.253c-.233-.337-.795-.337-1.028 0L.112 8.378a.624.624 0 00.513.98z"/></svg><svg viewBox="0 0 61 35" id="next" xmlns="http://www.w3.org/2000/svg"><circle cx="43" cy="17.5" r="17"/><path d="M1 17a.5.5 0 000 1v-1zm42.354.854a.5.5 0 000-.708l-3.182-3.182a.5.5 0 10-.707.708l2.828 2.828-2.828 2.828a.5.5 0 10.707.707l3.182-3.181zM1 18h42v-1H1v1z"/><defs><linearGradient id="ja" x1="60.5" y1="17.5" x2="25.5" y2="17.5" gradientUnits="userSpaceOnUse"><stop stop-color="#EDF6F9"/><stop offset="1" stop-color="#EDF6F9" stop-opacity="0"/></linearGradient></defs></svg><svg viewBox="0 0 20 20" id="phone" xmlns="http://www.w3.org/2000/svg"><g clip-path="url(#ka)"><path d="M17.232 13.92c-1.208-1.033-2.434-1.66-3.627-.627l-.713.623c-.521.453-1.49 2.568-5.239-1.743-3.747-4.306-1.517-4.977-.995-5.426l.717-.624c1.187-1.034.739-2.336-.117-3.676l-.517-.812C5.881.298 4.944-.58 3.754.453l-.643.562C2.585 1.398 1.115 2.644.758 5.01c-.43 2.84.925 6.091 4.027 9.659 3.099 3.569 6.133 5.362 9.006 5.33 2.389-.025 3.83-1.307 4.282-1.773l.645-.563c1.188-1.032.45-2.082-.759-3.118l-.727-.625z"/></g><defs><clipPath id="ka"><path d="M0 0h20v20H0z"/></clipPath></defs></svg><svg viewBox="0 0 30 30" id="play" xmlns="http://www.w3.org/2000/svg"><circle cx="15" cy="15" r="15"/><path d="M20.7 14.434a1 1 0 010 1.732l-8.25 4.763a1 1 0 01-1.5-.866v-9.526a1 1 0 011.5-.866l8.25 4.763z"/></svg><svg viewBox="0 0 61 35" id="prev" xmlns="http://www.w3.org/2000/svg"><circle r="17" transform="matrix(-1 0 0 1 18 17.5)"/><path d="M60.5 17a.5.5 0 010 1v-1zm-42.354.854a.5.5 0 010-.708l3.182-3.182a.5.5 0 11.707.708L19.207 17.5l2.828 2.828a.5.5 0 11-.707.707l-3.182-3.181zM60.5 18h-42v-1h42v1z"/><defs><linearGradient id="ma" x1="35" y1="17.5" x2="0" y2="17.5" gradientUnits="userSpaceOnUse"><stop stop-color="#EDF6F9"/><stop offset="1" stop-color="#EDF6F9" stop-opacity="0"/></linearGradient></defs></svg><svg viewBox="0 0 24 24" id="search" xmlns="http://www.w3.org/2000/svg"><path fill-rule="evenodd" clip-rule="evenodd" d="M17.19 15.478l6.456 6.456a1.21 1.21 0 01-1.713 1.711l-6.455-6.456a9.6 9.6 0 111.71-1.71h.002zM9.6 16.8a7.2 7.2 0 100-14.398 7.2 7.2 0 000 14.398z"/></svg><svg viewBox="0 0 30 30" id="site" xmlns="http://www.w3.org/2000/svg"><path d="M15 0a15 15 0 100 30 15 15 0 000-30zm5.767 19.917c0 2.45-1.334 5.5-6.767 7.833.5-6.95-4.2-6.15-5.333-8.333a5.417 5.417 0 013-4.25A14.15 14.15 0 014.7 11.833a3.07 3.07 0 001.067 2.017 6.967 6.967 0 01-3.234-2.5 13.233 13.233 0 0112.084-9.383c-1.4 2.3-2.5 6.883 0 9.283-2.567.417-4.184-2.917-5.6-1.6-1.884 1.767.55 4.183 5.7 5.133 5.483.984 6.1 2.634 6.05 5.134zM23 13.25c-.533-1.85 1.033-3.717 2.817-5.233a12.117 12.117 0 011.4 11.133C25.933 16 23.6 15.283 23 13.2v.05z"/></svg><svg viewBox="0 0 30 30" id="social-google" xmlns="http://www.w3.org/2000/svg"><rect width="30" height="30" rx="3"/><path d="M24.193 13.164h-.756v-.039H15v3.75h5.298A5.623 5.623 0 019.375 15 5.625 5.625 0 0115 9.375a5.59 5.59 0 013.732 1.425l2.651-2.652A9.331 9.331 0 0015 5.625a9.375 9.375 0 109.193 7.539z"/><path d="M6.706 10.636l3.08 2.26A5.623 5.623 0 0115 9.374c1.434 0 2.739.54 3.732 1.425l2.652-2.652A9.332 9.332 0 0015 5.625a9.37 9.37 0 00-8.294 5.011zM15 24.375a9.331 9.331 0 006.285-2.434l-2.901-2.455A5.583 5.583 0 0115 20.625 5.622 5.622 0 019.71 16.9l-3.057 2.356c1.551 3.036 4.702 5.119 8.346 5.119z"/><path d="M24.193 13.164h-.756v-.039H15v3.75h5.298a5.644 5.644 0 01-1.915 2.611l2.902 2.455c-.205.186 3.09-2.253 3.09-6.941 0-.629-.065-1.242-.182-1.836z"/></svg><svg viewBox="0 0 30 30" id="social-vk" xmlns="http://www.w3.org/2000/svg"><rect width="30" height="30" rx="3"/><path d="M26.2 8.922c.163-.549 0-.953-.782-.953H22.83c-.66 0-.963.347-1.125.734 0 0-1.319 3.212-3.182 5.295-.602.602-.879.796-1.209.796-.162 0-.413-.194-.413-.743V8.922c0-.659-.184-.953-.73-.953h-4.069c-.412 0-.659.307-.659.593 0 .624.932.769 1.029 2.527v3.814c0 .835-.15.99-.48.99-.878 0-3.014-3.227-4.28-6.918-.254-.716-.505-1.006-1.169-1.006H3.955c-.738 0-.888.347-.888.734 0 .685.88 4.09 4.092 8.59 2.14 3.073 5.154 4.738 7.897 4.738 1.648 0 1.85-.369 1.85-1.006 0-2.936-.15-3.212.677-3.212.382 0 1.041.193 2.58 1.674 1.757 1.758 2.047 2.544 3.031 2.544h2.589c.738 0 1.111-.369.896-1.098-.492-1.534-3.819-4.69-3.968-4.9-.382-.493-.272-.712 0-1.152.004-.004 3.164-4.451 3.49-5.959z"/></svg><svg viewBox="0 0 30 30" id="telegram" xmlns="http://www.w3.org/2000/svg"><circle cx="15.5" cy="16.5" r="10.5"/><path d="M15 0C6.713 0 0 6.714 0 15s6.714 15 15 15c8.287 0 15-6.714 15-15S23.286 0 15 0zm7.367 10.277l-2.462 11.6c-.181.823-.671 1.023-1.354.636l-3.75-2.764-1.81 1.742c-.198.199-.368.368-.755.368l.266-3.816 6.95-6.28c.302-.265-.067-.416-.467-.15l-8.588 5.407-3.702-1.156c-.804-.253-.823-.804.17-1.191l14.461-5.577c.672-.242 1.258.163 1.04 1.18h.001z"/></svg><svg viewBox="0 0 35 35" id="telegram-share" xmlns="http://www.w3.org/2000/svg"><path d="M17.5 0C7.832 0 0 7.833 0 17.5S7.833 35 17.5 35C27.168 35 35 27.167 35 17.5S27.167 0 17.5 0zm8.595 11.99l-2.872 13.534c-.212.96-.784 1.192-1.58.74l-4.376-3.224-2.11 2.032c-.232.233-.43.43-.882.43l.311-4.452 8.107-7.325c.354-.311-.077-.487-.544-.177l-10.02 6.308-4.318-1.348c-.939-.296-.96-.938.197-1.39l16.873-6.506c.783-.283 1.467.19 1.213 1.376l.001.001z"/></svg><svg viewBox="0 0 25 25" id="user" xmlns="http://www.w3.org/2000/svg"><path d="M15.102 14.844h-4.97c-4.692 0-8.496 3.789-8.496 8.462 0 .937.76 1.694 1.699 1.694H21.9c.938 0 1.698-.757 1.698-1.694 0-4.673-3.804-8.462-8.496-8.462zM12.617 12.5c3.466 0 6.275-2.798 6.275-6.25S16.082 0 12.617 0C9.15 0 6.342 2.798 6.342 6.25s2.809 6.25 6.275 6.25z"/></svg><svg viewBox="0 0 30 30" id="vk" xmlns="http://www.w3.org/2000/svg"><circle cx="15" cy="15" r="15"/><path d="M4 9h22v13H4z"/><path d="M5.94 7.425C3.831 9.27 1.8 8.765 1.8 14.705v2.701c0 5.94 2.031 3.774 4.14 5.619 2.109 1.845 1.747 3.3 8.535 3.3h1.95c6.788 0 8.106-.855 10.215-2.7 2.109-1.845 1.38-1.854 1.38-7.794v-2.323c0-5.94-.761-5.138-2.87-6.983C23.041 4.68 22.463 2.4 15.675 2.4h-1.2c-6.788 0-6.426 3.18-8.535 5.025zm-.803 2.96h3.426c.112 5.009 2.637 7.13 4.637 7.568v-7.569h3.225v4.32c1.975-.185 4.05-2.154 4.75-4.32H24.4a7.844 7.844 0 01-1.545 3.124 9.151 9.151 0 01-2.843 2.323 9.763 9.763 0 013.241 2.258 8.306 8.306 0 011.897 3.222H21.6c-.327-1.025-.993-1.942-1.913-2.636a6.622 6.622 0 00-3.262-1.269v3.905h-.387c-6.838 0-10.738-4.102-10.9-10.927z"/></svg><svg viewBox="0 0 35 35" id="vk-share" xmlns="http://www.w3.org/2000/svg"><circle cx="17.5" cy="17.5" r="17.5"/><path d="M6 10h24v16H6z"/><path d="M6.93 8.663c-2.46 2.152-4.83 1.563-4.83 8.492v3.152c0 6.93 2.37 4.403 4.83 6.556 2.46 2.152 2.038 3.85 9.958 3.85h2.275c7.92 0 9.457-.998 11.917-3.15 2.46-2.153 1.61-2.164 1.61-9.093v-2.71c0-6.93-.888-5.995-3.348-8.147C26.882 5.46 26.207 2.8 18.288 2.8h-1.4c-7.92 0-7.498 3.71-9.958 5.863zm-.936 3.452H9.99c.131 5.844 3.077 8.32 5.41 8.83v-8.83h3.763v5.04c2.304-.216 4.725-2.513 5.541-5.04h3.763a9.15 9.15 0 01-1.802 3.645 10.675 10.675 0 01-3.317 2.71 11.392 11.392 0 013.781 2.633 9.69 9.69 0 012.213 3.76H25.2c-.381-1.195-1.158-2.265-2.232-3.076-1.074-.81-2.398-1.325-3.805-1.48v4.556h-.453c-7.977 0-12.527-4.785-12.716-12.748z"/></svg><svg viewBox="0 0 30 30" id="youtube" xmlns="http://www.w3.org/2000/svg"><circle cx="15" cy="15" r="15"/><path d="M25.217 10.113a2.688 2.688 0 00-1.87-1.866C21.673 7.8 14.943 7.8 14.943 7.8s-6.718-.01-8.41.447a2.687 2.687 0 00-1.865 1.866A27.895 27.895 0 004.2 15.31a28.272 28.272 0 00.468 5.172 2.699 2.699 0 001.866 1.87c1.674.448 8.409.448 8.409.448s6.713 0 8.404-.448a2.7 2.7 0 001.87-1.87 28.2 28.2 0 00.448-5.172 28.104 28.104 0 00-.448-5.197zm-12.424 8.41v-6.439l5.602 3.226-5.602 3.212z"/></svg></svg>