<?xml version="1.0" encoding="utf-8"?><svg viewBox="0 0 30 30" xmlns="http://www.w3.org/2000/svg" xmlns:xlink="http://www.w3.org/1999/xlink"><style>:root>svg{display:none}:root>svg:target{display:block}</style><svg viewBox="0 0 18 18" id="hour" xmlns="http://www.w3.org/2000/svg"><path d="M9 0C4.037 0 0 4.037 0 9s4.037 9 9 9 9-4.037 9-9-4.037-9-9-9zm4.28 13.655a.748.748 0 01-1.06 0l-3.75-3.75a.747.747 0 01-.22-.53V4.5a.75.75 0 111.5 0v4.565l3.53 3.53a.75.75 0 010 1.06z"/></svg><svg viewBox="0 0 20 20" id="location" xmlns="http://www.w3.org/2000/svg"><path d="M10 0C6.006 0 2.757 3.25 2.757 7.243c0 4.957 6.482 12.233 6.758 12.54a.65.65 0 00.97 0c.276-.307 6.758-7.583 6.758-12.54C17.243 3.25 13.993 0 10 0zm0 10.887a3.648 3.648 0 01-3.644-3.644A3.648 3.648 0 0110 3.6a3.648 3.648 0 013.644 3.644A3.648 3.648 0 0110 10.887z"/></svg><svg viewBox="0 0 20 20" id="mail" xmlns="http://www.w3.org/2000/svg"><g clip-path="url(#ca)"><path d="M19.824 3.974L13.758 10l6.066 6.027c.11-.23.176-.483.176-.753V4.727c0-.27-.067-.524-.176-.753zm-1.582-1.005H1.758c-.27 0-.524.066-.753.176l7.752 7.713a1.76 1.76 0 002.486 0l7.752-7.713a1.737 1.737 0 00-.753-.176zM.176 3.974A1.73 1.73 0 000 4.727v10.547c0 .27.067.524.176.753L6.242 10 .176 3.974z"/><path d="M12.93 10.829l-.859.858a2.933 2.933 0 01-4.142 0l-.859-.858-6.065 6.026c.229.11.482.176.753.176h16.484c.27 0 .524-.066.753-.176L12.93 10.83z"/></g><defs><clipPath id="ca"><path d="M0 0h20v20H0z"/></clipPath></defs></svg><svg viewBox="0 0 13 10" id="menu" xmlns="http://www.w3.org/2000/svg"><path d="M.625.642h11.25a.626.626 0 01.515.98L6.765 9.747c-.233.337-.795.337-1.028 0L.112 1.622a.624.624 0 01.513-.98z"/></svg><svg viewBox="0 0 13 10" id="menu-open" xmlns="http://www.w3.org/2000/svg"><path d="M.625 9.358h11.25a.626.626 0 00.515-.98L6.765.253c-.233-.337-.795-.337-1.028 0L.112 8.378a.624.624 0 00.513.98z"/></svg><svg viewBox="0 0 20 20" id="phone" xmlns="http://www.w3.org/2000/svg"><g clip-path="url(#fa)"><path d="M17.232 13.92c-1.208-1.033-2.434-1.66-3.627-.627l-.713.623c-.521.453-1.49 2.568-5.239-1.743-3.747-4.306-1.517-4.977-.995-5.426l.717-.624c1.187-1.034.739-2.336-.117-3.676l-.517-.812C5.881.298 4.944-.58 3.754.453l-.643.562C2.585 1.398 1.115 2.644.758 5.01c-.43 2.84.925 6.091 4.027 9.659 3.099 3.569 6.133 5.362 9.006 5.33 2.389-.025 3.83-1.307 4.282-1.773l.645-.563c1.188-1.032.45-2.082-.759-3.118l-.727-.625z"/></g><defs><clipPath id="fa"><path d="M0 0h20v20H0z"/></clipPath></defs></svg><svg viewBox="0 0 24 24" id="search" xmlns="http://www.w3.org/2000/svg"><path fill-rule="evenodd" clip-rule="evenodd" d="M17.19 15.478l6.456 6.456a1.21 1.21 0 01-1.713 1.711l-6.455-6.456a9.6 9.6 0 111.71-1.71h.002zM9.6 16.8a7.2 7.2 0 100-14.398 7.2 7.2 0 000 14.398z"/></svg><svg viewBox="0 0 30 30" id="telegram" xmlns="http://www.w3.org/2000/svg"><circle cx="15.5" cy="16.5" r="10.5"/><path d="M15 0C6.713 0 0 6.714 0 15s6.714 15 15 15c8.287 0 15-6.714 15-15S23.286 0 15 0zm7.367 10.277l-2.462 11.6c-.181.823-.671 1.023-1.354.636l-3.75-2.764-1.81 1.742c-.198.199-.368.368-.755.368l.266-3.816 6.95-6.28c.302-.265-.067-.416-.467-.15l-8.588 5.407-3.702-1.156c-.804-.253-.823-.804.17-1.191l14.461-5.577c.672-.242 1.258.163 1.04 1.18h.001z"/></svg><svg viewBox="0 0 25 25" id="user" xmlns="http://www.w3.org/2000/svg"><path d="M15.102 14.844h-4.97c-4.692 0-8.496 3.789-8.496 8.462 0 .937.76 1.694 1.699 1.694H21.9c.938 0 1.698-.757 1.698-1.694 0-4.673-3.804-8.462-8.496-8.462zM12.617 12.5c3.466 0 6.275-2.798 6.275-6.25S16.082 0 12.617 0C9.15 0 6.342 2.798 6.342 6.25s2.809 6.25 6.275 6.25z"/></svg><svg viewBox="0 0 30 30" id="vk" xmlns="http://www.w3.org/2000/svg"><circle cx="15" cy="15" r="15"/><path d="M4 9h22v13H4z"/><path d="M5.94 7.425C3.831 9.27 1.8 8.765 1.8 14.705v2.701c0 5.94 2.031 3.774 4.14 5.619 2.109 1.845 1.747 3.3 8.535 3.3h1.95c6.788 0 8.106-.855 10.215-2.7 2.109-1.845 1.38-1.854 1.38-7.794v-2.323c0-5.94-.761-5.138-2.87-6.983C23.041 4.68 22.463 2.4 15.675 2.4h-1.2c-6.788 0-6.426 3.18-8.535 5.025zm-.803 2.96h3.426c.112 5.009 2.637 7.13 4.637 7.568v-7.569h3.225v4.32c1.975-.185 4.05-2.154 4.75-4.32H24.4a7.844 7.844 0 01-1.545 3.124 9.151 9.151 0 01-2.843 2.323 9.763 9.763 0 013.241 2.258 8.306 8.306 0 011.897 3.222H21.6c-.327-1.025-.993-1.942-1.913-2.636a6.622 6.622 0 00-3.262-1.269v3.905h-.387c-6.838 0-10.738-4.102-10.9-10.927z"/></svg><svg viewBox="0 0 30 30" id="youtube" xmlns="http://www.w3.org/2000/svg"><circle cx="15" cy="15" r="15"/><path d="M25.217 10.113a2.688 2.688 0 00-1.87-1.866C21.673 7.8 14.943 7.8 14.943 7.8s-6.718-.01-8.41.447a2.687 2.687 0 00-1.865 1.866A27.895 27.895 0 004.2 15.31a28.272 28.272 0 00.468 5.172 2.699 2.699 0 001.866 1.87c1.674.448 8.409.448 8.409.448s6.713 0 8.404-.448a2.7 2.7 0 001.87-1.87 28.2 28.2 0 00.448-5.172 28.104 28.104 0 00-.448-5.197zm-12.424 8.41v-6.439l5.602 3.226-5.602 3.212z"/></svg></svg>