<svg width="50" height="50" viewBox="0 0 50 50" fill="none" xmlns="http://www.w3.org/2000/svg">
<circle cx="25" cy="25" r="25" fill="white"/>
<rect x="8" y="15" width="36" height="21" fill="#0A0A30"/>
<path d="M9.9 12.375C6.38549 15.4504 3 14.6086 3 24.5078V29.0104C3 38.9098 6.38549 35.2998 9.9 38.375C13.4147 41.4503 12.8116 43.875 24.125 43.875H27.375C38.6885 43.875 40.8855 42.4503 44.4 39.375C47.9146 36.2998 46.7 36.2848 46.7 26.3854V22.5136C46.7 12.6143 45.4313 13.9503 41.9166 10.875C38.4021 7.7998 37.4385 4 26.125 4H24.125C12.8115 4 13.4146 9.2998 9.9 12.375ZM8.5625 17.3074H14.2709C14.4584 25.6563 18.6666 29.1928 22 29.922V17.3073H27.375V24.5078C30.6666 24.1979 34.125 20.9167 35.2916 17.3073H40.6666C40.2269 19.1792 39.3505 20.9516 38.0923 22.5136C36.834 24.0756 35.221 25.3937 33.3541 26.3854C35.4386 27.2909 37.2798 28.5732 38.7558 30.1476C40.2318 31.722 41.3092 33.5525 41.9166 35.5183H36C35.4548 33.8108 34.3454 32.2822 32.8109 31.1244C31.2765 29.9666 29.3854 29.2312 27.375 29.0104V35.5183H26.7291C15.3334 35.5183 8.83337 28.6824 8.5625 17.3074Z" fill="white"/>
</svg>
