<svg width="13" height="10" viewBox="0 0 13 10" fill="none" xmlns="http://www.w3.org/2000/svg">
<path d="M0.625359 0.641719H11.8754C11.9893 0.642076 12.1009 0.673491 12.1983 0.73258C12.2957 0.79167 12.3751 0.876197 12.428 0.977064C12.4809 1.07793 12.5053 1.19132 12.4985 1.30502C12.4918 1.41872 12.4542 1.52843 12.3897 1.62234L6.76473 9.74734C6.53161 10.0842 5.97036 10.0842 5.73661 9.74734L0.111609 1.62234C0.0464991 1.52863 0.00831743 1.41886 0.00121183 1.30497C-0.00589377 1.19108 0.0183485 1.07742 0.0713048 0.976339C0.124261 0.875258 0.203906 0.790623 0.301586 0.731629C0.399266 0.672635 0.511246 0.64154 0.625359 0.641719Z" fill="white"/>
</svg>
