<svg width="30" height="30" viewBox="0 0 30 30" fill="none" xmlns="http://www.w3.org/2000/svg">
<path d="M15 0C11.0218 0 7.20644 1.58035 4.3934 4.3934C1.58035 7.20644 0 11.0218 0 15C0 18.9782 1.58035 22.7936 4.3934 25.6066C7.20644 28.4196 11.0218 30 15 30C18.9782 30 22.7936 28.4196 25.6066 25.6066C28.4196 22.7936 30 18.9782 30 15C30 11.0218 28.4196 7.20644 25.6066 4.3934C22.7936 1.58035 18.9782 0 15 0V0ZM20.7667 19.9167C20.7667 22.3667 19.4333 25.4167 14 27.75C14.5 20.8 9.8 21.6 8.66667 19.4167C8.76988 18.5134 9.09879 17.6507 9.62307 16.9079C10.1473 16.1652 10.8501 15.5664 11.6667 15.1667C9.08028 14.723 6.66821 13.5689 4.7 11.8333C4.78333 12.6167 5.165 13.34 5.76667 13.85C4.46319 13.3587 3.33693 12.4878 2.53333 11.35C3.32796 8.72733 4.9172 6.41604 7.08163 4.73525C9.24606 3.05446 11.8789 2.08708 14.6167 1.96667C13.2167 4.26667 12.1167 8.85 14.6167 11.25C12.05 11.6667 10.4333 8.33333 9.01667 9.65C7.13333 11.4167 9.56667 13.8333 14.7167 14.7833C20.2 15.7667 20.8167 17.4167 20.7667 19.9167ZM23 13.25C22.4667 11.4 24.0333 9.53333 25.8167 8.01667C26.9304 9.62203 27.6393 11.4729 27.8831 13.4115C28.1269 15.3501 27.8982 17.3189 27.2167 19.15C25.9333 16 23.6 15.2833 23 13.2V13.25Z" fill="#0077B6"/>
</svg>
