<svg width="30" height="30" viewBox="0 0 30 30" fill="none" xmlns="http://www.w3.org/2000/svg">
<rect width="30" height="30" rx="3" fill="white"/>
<path d="M26.2002 8.92236C26.3628 8.37305 26.2002 7.96875 25.418 7.96875H22.8296C22.1704 7.96875 21.8672 8.31592 21.7046 8.70264C21.7046 8.70264 20.3862 11.915 18.5229 13.998C17.9209 14.6001 17.644 14.7935 17.3145 14.7935C17.1519 14.7935 16.9014 14.6001 16.9014 14.0508V8.92236C16.9014 8.26318 16.7168 7.96875 16.1719 7.96875H12.1025C11.6895 7.96875 11.4434 8.27637 11.4434 8.56201C11.4434 9.18604 12.375 9.33105 12.4717 11.0889V14.9033C12.4717 15.7383 12.3223 15.8921 11.9927 15.8921C11.1138 15.8921 8.97803 12.6665 7.7124 8.9751C7.45752 8.25879 7.20703 7.96875 6.54346 7.96875H3.95508C3.2168 7.96875 3.06738 8.31592 3.06738 8.70264C3.06738 9.38818 3.94629 12.7939 7.15869 17.2939C9.29883 20.3657 12.3135 22.0312 15.0557 22.0312C16.7036 22.0312 16.9058 21.6621 16.9058 21.0249C16.9058 18.0894 16.7563 17.8125 17.5825 17.8125C17.9648 17.8125 18.624 18.0059 20.1621 19.4868C21.9199 21.2446 22.21 22.0312 23.1943 22.0312H25.7827C26.521 22.0312 26.8945 21.6621 26.6792 20.9326C26.187 19.3989 22.8604 16.2437 22.7109 16.0327C22.3286 15.5405 22.4385 15.3208 22.7109 14.8813C22.7153 14.877 25.875 10.4297 26.2002 8.92236Z" fill="#0077FF"/>
</svg>
