<svg width="30" height="30" viewBox="0 0 30 30" fill="none" xmlns="http://www.w3.org/2000/svg">
<rect width="30" height="30" rx="3" fill="white"/>
<path d="M24.1927 13.1639H23.4375V13.125H15V16.875H20.2983C19.5253 19.058 17.4483 20.625 15 20.625C11.8936 20.625 9.375 18.1064 9.375 15C9.375 11.8936 11.8936 9.375 15 9.375C16.4339 9.375 17.7384 9.91594 18.7317 10.7995L21.3834 8.14781C19.7091 6.58734 17.4694 5.625 15 5.625C9.82266 5.625 5.625 9.82266 5.625 15C5.625 20.1773 9.82266 24.375 15 24.375C20.1773 24.375 24.375 20.1773 24.375 15C24.375 14.3714 24.3103 13.7578 24.1927 13.1639Z" fill="#FFC107"/>
<path d="M6.70605 10.6364L9.78621 12.8953C10.6196 10.8319 12.6381 9.375 15.0001 9.375C16.434 9.375 17.7386 9.91594 18.7318 10.7995L21.3836 8.14781C19.7092 6.58734 17.4695 5.625 15.0001 5.625C11.3992 5.625 8.27637 7.65797 6.70605 10.6364Z" fill="#FF3D00"/>
<path d="M14.9999 24.375C17.4215 24.375 19.6218 23.4483 21.2854 21.9413L18.3838 19.4859C17.4109 20.2258 16.2221 20.626 14.9999 20.625C12.5615 20.625 10.491 19.0702 9.711 16.9003L6.65381 19.2558C8.20537 22.2919 11.3563 24.375 14.9999 24.375Z" fill="#4CAF50"/>
<path d="M24.1927 13.1639H23.4375V13.125H15V16.875H20.2983C19.9285 17.9139 19.2625 18.8218 18.3825 19.4864L18.3839 19.4855L21.2855 21.9408C21.0802 22.1273 24.375 19.6875 24.375 15C24.375 14.3714 24.3103 13.7578 24.1927 13.1639Z" fill="#1976D2"/>
</svg>
