<svg width="30" height="30" viewBox="0 0 30 30" fill="none" xmlns="http://www.w3.org/2000/svg">
<circle cx="15" cy="15" r="15" fill="white"/>
<path d="M25.217 10.1134C25.0923 9.66768 24.8546 9.26171 24.527 8.9348C24.1994 8.60788 23.7929 8.3711 23.3469 8.24738C21.6728 7.79983 14.9428 7.79983 14.9428 7.79983C14.9428 7.79983 8.22549 7.78909 6.53393 8.24738C6.08866 8.37164 5.68297 8.60868 5.35609 8.93556C5.0292 9.26245 4.79217 9.66813 4.66791 10.1134C4.34999 11.8273 4.19341 13.5671 4.20023 15.3102C4.19712 17.0449 4.35368 18.7762 4.66791 20.4822C4.79257 20.9277 5.02968 21.3337 5.35645 21.6612C5.68322 21.9886 6.08869 22.2266 6.53393 22.3523C8.20805 22.7998 14.9428 22.7998 14.9428 22.7998C14.9428 22.7998 21.656 22.7998 23.3469 22.3523C23.7929 22.2272 24.1991 21.9894 24.5267 21.6619C24.8542 21.3344 25.0919 20.9282 25.217 20.4822C25.525 18.7772 25.6753 17.0434 25.6645 15.3102C25.6753 13.5656 25.5283 11.8291 25.217 10.1134V10.1134ZM12.7929 18.5222V12.0841L18.395 15.3102L12.7929 18.5222Z" fill="#0077B6"/>
</svg>
